<?xml version="1.0" encoding="utf-8"?>
<!-- Generator: Adobe Illustrator 18.0.0, SVG Export Plug-In . SVG Version: 6.00 Build 0)  -->
<!DOCTYPE svg PUBLIC "-//W3C//DTD SVG 1.1//EN" "http://www.w3.org/Graphics/SVG/1.1/DTD/svg11.dtd">
<svg version="1.1" id="Calque_1" xmlns="http://www.w3.org/2000/svg" xmlns:xlink="http://www.w3.org/1999/xlink" x="0px" y="0px"
	 viewBox="0 0 72 72" enable-background="new 0 0 72 72" xml:space="preserve"><g
     id="g3"
     transform="matrix(1.3521653,0,0,1.3521653,0,5.919501)"><path
       d="M 19.099,31.127 H 9.837 L 7.534,39.738 H 0 L 9.837,7.746 h 9.597 L 27.75,34.15 33.184,16.729 h 6.98 l 7.328,23.017 H 41.735 L 39.92,33.483 h -6.736 l -1.675,6.263 -9.915,-0.008 -2.495,-8.611 z m -8.206,-5.203 h 7.15 l -2.015,-6.798 -0.852,-3.09 -0.78,-3.089 H 14.3 l -0.726,3.117 -0.762,3.142 -1.919,6.718 z M 33.952,29.7 h 5.2 L 37.686,24.756 37.067,22.509 36.5,20.263 H 36.43 L 35.902,22.53 35.348,24.815 33.952,29.7 z M 30.44,7.746 h 12 l -6,6 -6,-6 z"
       id="path5"/></g><g
     id="g7"
     transform="translate(0,12.508)" /><g
     id="g9"
     transform="translate(0,12.508)" /><g
     id="g11"
     transform="translate(0,12.508)" /><g
     id="g13"
     transform="translate(0,12.508)" /><g
     id="g15"
     transform="translate(0,12.508)" /><g
     id="g17"
     transform="translate(0,12.508)" /><g
     id="g19"
     transform="translate(0,12.508)" /><g
     id="g21"
     transform="translate(0,12.508)" /><g
     id="g23"
     transform="translate(0,12.508)" /><g
     id="g25"
     transform="translate(0,12.508)" /><g
     id="g27"
     transform="translate(0,12.508)" /><g
     id="g29"
     transform="translate(0,12.508)" /><g
     id="g31"
     transform="translate(0,12.508)" /><g
     id="g33"
     transform="translate(0,12.508)" /><g
     id="g35"
     transform="translate(0,12.508)" /></svg>