<?xml version="1.0" encoding="utf-8"?>
<!-- Generator: Adobe Illustrator 18.0.0, SVG Export Plug-In . SVG Version: 6.00 Build 0)  -->
<!DOCTYPE svg PUBLIC "-//W3C//DTD SVG 1.1//EN" "http://www.w3.org/Graphics/SVG/1.1/DTD/svg11.dtd">
<svg version="1.1" id="Calque_1" xmlns="http://www.w3.org/2000/svg" xmlns:xlink="http://www.w3.org/1999/xlink" x="0px" y="0px"
	 viewBox="0 0 72 72" enable-background="new 0 0 72 72" xml:space="preserve"><g
     id="g3"
     transform="matrix(0.09084036,0,0,0.09084036,4.5055321,11.552746)"><path
       d="M 416.457,8.442 C 369.308,8.442 339.051,0 290.495,0 133.576,0 60.395,89.367 60.395,180.142 c 0,53.478 25.333,71.072 75.293,71.072 -3.52,-7.742 -9.851,-16.188 -9.851,-54.184 0,-106.255 40.107,-137.218 91.477,-139.328 0,0 -42.145,413.216 -164.468,462.782 v 12.85 h 87.874 77.019 L 274.003,266.668 H 377.047 L 400,200 H 288.069 L 315.124,71.776 c 30.962,6.331 61.219,12.664 87.257,12.664 32.368,0 61.924,-9.851 78.106,-84.44 -19.7,6.333 -40.812,8.442 -64.03,8.442 z"
       id="path5"/></g><g
     id="g7"
     transform="translate(0,-473.333)" /><g
     id="g9"
     transform="translate(0,-473.333)" /><g
     id="g11"
     transform="translate(0,-473.333)" /><g
     id="g13"
     transform="translate(0,-473.333)" /><g
     id="g15"
     transform="translate(0,-473.333)" /><g
     id="g17"
     transform="translate(0,-473.333)" /><g
     id="g19"
     transform="translate(0,-473.333)" /><g
     id="g21"
     transform="translate(0,-473.333)" /><g
     id="g23"
     transform="translate(0,-473.333)" /><g
     id="g25"
     transform="translate(0,-473.333)" /><g
     id="g27"
     transform="translate(0,-473.333)" /><g
     id="g29"
     transform="translate(0,-473.333)" /><g
     id="g31"
     transform="translate(0,-473.333)" /><g
     id="g33"
     transform="translate(0,-473.333)" /><g
     id="g35"
     transform="translate(0,-473.333)" /></svg>