<?xml version="1.0" encoding="utf-8"?>
<!-- Generator: Adobe Illustrator 18.0.0, SVG Export Plug-In . SVG Version: 6.00 Build 0)  -->
<!DOCTYPE svg PUBLIC "-//W3C//DTD SVG 1.1//EN" "http://www.w3.org/Graphics/SVG/1.1/DTD/svg11.dtd">
<svg version="1.1" id="Calque_1" xmlns="http://www.w3.org/2000/svg" xmlns:xlink="http://www.w3.org/1999/xlink" x="0px" y="0px"
	 viewBox="0 0 72 72" enable-background="new 0 0 72 72" xml:space="preserve"><g
     id="g10"
     transform="matrix(1.25,0,0,-1.25,0,60)"><g
       id="g12"
       transform="matrix(0.45288716,0,0,0.4881356,0,-0.48813559)"
       style="fill:#000000"><path
         d="m 3.5328889,83.938137 0,-83.938137 99.9700411,0 0,83.938137 -99.9700411,0 z M 34.770597,5.6040738 l -24.9810139,0 0,11.1699132 24.9810139,0 0,-11.1699132 z m 0,16.7712452 -24.9810139,0 0,11.208119 24.9810139,0 0,-11.208119 z m 0,16.809451 -24.9810139,0 0,11.169928 24.9810139,0 0,-11.169928 z m 0,16.773988 -24.9810139,0 0,11.205392 24.9810139,0 0,-11.205392 z m 31.237707,-50.3546842 -24.981029,0 0,11.1699132 24.981029,0 0,-11.1699132 z m 0,16.7712452 -24.981029,0 0,11.208119 24.981029,0 0,-11.208119 z m 0,16.809451 -24.981029,0 0,11.169928 24.981029,0 0,-11.169928 z m 0,16.773988 -24.981029,0 0,11.205392 24.981029,0 0,-11.205392 z m 31.237707,-50.3546842 -24.981028,0 0,11.1699132 24.981028,0 0,-11.1699132 z m 0,16.7712452 -24.981028,0 0,11.208119 24.981028,0 0,-11.208119 z m 0,16.809451 -24.981028,0 0,11.169928 24.981028,0 0,-11.169928 z m 0,16.773988 -24.981028,0 0,11.205392 24.981028,0 0,-11.205392 z"
         style="fill:#000000;fill-opacity:1;fill-rule:nonzero;stroke:none"
         id="path14"/></g></g></svg>