<?xml version="1.0" encoding="utf-8"?>
<!-- Generator: Adobe Illustrator 18.0.0, SVG Export Plug-In . SVG Version: 6.00 Build 0)  -->
<!DOCTYPE svg PUBLIC "-//W3C//DTD SVG 1.1//EN" "http://www.w3.org/Graphics/SVG/1.1/DTD/svg11.dtd">
<svg version="1.1" id="Calque_1" xmlns="http://www.w3.org/2000/svg" xmlns:xlink="http://www.w3.org/1999/xlink" x="0px" y="0px"
	 viewBox="0 0 72 72" enable-background="new 0 0 72 72" xml:space="preserve">
  <g
     id="g4"
     transform="matrix(0.43032015,0,0,0.43032015,1.645951,6.7857817)">
    <path
       d="m 10.5,122.5 h 21.8 64.3 21.8 c 2.3,0 4.1,-1.8 4.1,-4.1 V 10.5 c 0,-2.3 -1.8,-4.1 -4.1,-4.1 H 10.5 c -2.3,0 -4.1,1.8 -4.1,4.1 v 107.9 c 0,2.3 1.9,4.1 4.1,4.1 z M 100.7,14.6 h 13.6 V 33.4 H 100.7 V 14.6 z m 0,27 h 13.6 V 60.4 H 110 100.6 V 41.6 z m 0.1,27 h 9.4 4.3 V 87.4 H 100.9 V 68.6 z m -0.1,27 h 13.6 v 18.8 H 100.7 V 95.6 z M 36.4,14.6 H 92.5 V 60.4 H 36.4 V 14.6 z m 0,54 h 56.1 v 45.8 H 36.4 V 68.6 z M 14.6,14.6 H 28.2 V 33.4 H 14.6 V 14.6 z m 0,27 H 28.2 V 60.4 H 14.6 V 41.6 z m 0,27 H 28.2 V 87.4 H 14.6 V 68.6 z m 0,27 h 13.6 v 18.8 H 14.6 V 95.6 z"
       id="path6" />
  </g>
</svg>