<?xml version="1.0" encoding="utf-8"?>
<!-- Generator: Adobe Illustrator 18.0.0, SVG Export Plug-In . SVG Version: 6.00 Build 0)  -->
<!DOCTYPE svg PUBLIC "-//W3C//DTD SVG 1.1//EN" "http://www.w3.org/Graphics/SVG/1.1/DTD/svg11.dtd">
<svg version="1.1" id="Calque_1" xmlns="http://www.w3.org/2000/svg" xmlns:xlink="http://www.w3.org/1999/xlink" x="0px" y="0px"
	 viewBox="0 0 72 72" enable-background="new 0 0 72 72" xml:space="preserve">
<path
     id="XMLID_135_"
     d="M 63.851398,20.552316 52.335611,9.0367714 c -1.73314,-1.7331427 -4.541895,-1.7331427 -6.276614,0 -0.832272,0.8319183 -1.299617,1.9586056 -1.299617,3.1355326 0,0.86138 0.255292,1.697281 0.717072,2.41049 l -15.386253,13.23492 c -1.584366,-0.733015 -3.317511,-1.137075 -5.098121,-1.137075 -3.218849,0 -6.306803,1.277638 -8.586512,3.557462 -1.662012,1.663709 -1.662012,4.357741 0,6.02145 l 6.92063,6.92244 -16.3467781,22.726521 22.7266441,-16.346659 6.920625,6.920748 c 1.661657,1.661897 4.359433,1.661897 6.023385,0 2.27584,-2.277894 3.555052,-5.365603 3.555052,-8.586389 0,-1.77867 -0.401769,-3.511693 -1.134784,-5.094375 L 58.307434,27.411838 c 0.711153,0.461305 1.544999,0.717072 2.40662,0.717072 1.176563,0 2.305913,-0.46746 3.137344,-1.301429 1.733139,-1.733267 1.733139,-4.542022 0,-6.275165 z"
      /><g
     id="g4"
     transform="translate(0,-409.715)" /><g
     id="g6"
     transform="translate(0,-409.715)" /><g
     id="g8"
     transform="translate(0,-409.715)" /><g
     id="g10"
     transform="translate(0,-409.715)" /><g
     id="g12"
     transform="translate(0,-409.715)" /><g
     id="g14"
     transform="translate(0,-409.715)" /><g
     id="g16"
     transform="translate(0,-409.715)" /><g
     id="g18"
     transform="translate(0,-409.715)" /><g
     id="g20"
     transform="translate(0,-409.715)" /><g
     id="g22"
     transform="translate(0,-409.715)" /><g
     id="g24"
     transform="translate(0,-409.715)" /><g
     id="g26"
     transform="translate(0,-409.715)" /><g
     id="g28"
     transform="translate(0,-409.715)" /><g
     id="g30"
     transform="translate(0,-409.715)" /><g
     id="g32"
     transform="translate(0,-409.715)" /></svg>