<?xml version="1.0" encoding="utf-8"?>
<!-- Generator: Adobe Illustrator 18.0.0, SVG Export Plug-In . SVG Version: 6.00 Build 0)  -->
<!DOCTYPE svg PUBLIC "-//W3C//DTD SVG 1.1//EN" "http://www.w3.org/Graphics/SVG/1.1/DTD/svg11.dtd">
<svg version="1.1" id="Calque_1" xmlns="http://www.w3.org/2000/svg" xmlns:xlink="http://www.w3.org/1999/xlink" x="0px" y="0px"
	 viewBox="0 0 72 72" enable-background="new 0 0 72 72" xml:space="preserve">
	<g
     id="g3"
     transform="matrix(0.09794197,0,0,0.09589084,5.4576287,8.8582556)"><path
       d="m 200,100 h 66.667 v 33.333 H 200 V 100 z m 100,0 h 66.667 v 33.333 H 300 V 100 z m 166.667,0 v 133.333 h -100 V 200 h 66.667 V 133.333 H 400 V 100 h 66.667 z m -300,100 h 66.667 v 33.333 H 166.667 V 200 z m 100,0 h 66.667 v 33.333 H 266.667 V 200 z M 100,133.333 V 200 h 33.333 v 33.333 H 66.667 V 100 h 100 v 33.333 H 100 z M 200,300 h 66.667 v 33.333 H 200 V 300 z m 100,0 h 66.667 v 33.333 H 300 V 300 z m 166.667,0 v 133.333 h -100 V 400 h 66.667 V 333.333 H 400 V 300 h 66.667 z m -300,100 h 66.667 v 33.333 H 166.667 V 400 z m 100,0 h 66.667 v 33.333 H 266.667 V 400 z M 100,333.333 V 400 h 33.333 v 33.333 H 66.667 V 300 h 100 v 33.333 H 100 z m 400,-300 H 33.333 V 500 H 500 V 33.333 z M 533.333,0 l 0,0 V 533.333 H 0 V 0 h 533.333 z"
       id="path5" /></g><g
     id="g7"
     transform="translate(0,-473.333)" /><g
     id="g9"
     transform="translate(0,-473.333)" /><g
     id="g11"
     transform="translate(0,-473.333)" /><g
     id="g13"
     transform="translate(0,-473.333)" /><g
     id="g15"
     transform="translate(0,-473.333)" /><g
     id="g17"
     transform="translate(0,-473.333)" /><g
     id="g19"
     transform="translate(0,-473.333)" /><g
     id="g21"
     transform="translate(0,-473.333)" /><g
     id="g23"
     transform="translate(0,-473.333)" /><g
     id="g25"
     transform="translate(0,-473.333)" /><g
     id="g27"
     transform="translate(0,-473.333)" /><g
     id="g29"
     transform="translate(0,-473.333)" /><g
     id="g31"
     transform="translate(0,-473.333)" /><g
     id="g33"
     transform="translate(0,-473.333)" /><g
     id="g35"
     transform="translate(0,-473.333)" /></svg>