<?xml version="1.0" encoding="utf-8"?>
<!-- Generator: Adobe Illustrator 18.0.0, SVG Export Plug-In . SVG Version: 6.00 Build 0)  -->
<!DOCTYPE svg PUBLIC "-//W3C//DTD SVG 1.1//EN" "http://www.w3.org/Graphics/SVG/1.1/DTD/svg11.dtd">
<svg version="1.1" id="Calque_1" xmlns="http://www.w3.org/2000/svg" xmlns:xlink="http://www.w3.org/1999/xlink" x="0px" y="0px"
	 viewBox="0 0 72 72" enable-background="new 0 0 72 72" xml:space="preserve">
    <g
     id="g3"
     transform="matrix(0.50575227,0,0,0.50575227,6.1629689,12.086053)"><g
       id="g5"><path
         d="M 72.782,0 H 50.043 L 38.632,34.561 h 7.46 c 2.792,0 5.269,1.353 6.828,3.431 l 0.385,-1.452 7.189,-21.336 2.339,-0.013 7.534,22.813 H 52.932 c 1.064,1.426 1.704,3.188 1.704,5.099 v 9.924 h 18.918 l 3.341,12.704 H 94.41 L 72.782,0 z"
         id="path7"/><path
         d="m 51.547,85.23 c -0.888,-2.971 -1.488,-12.396 -1.488,-19.766 0,-0.902 -0.235,-1.75 -0.645,-2.486 0.41,-0.914 0.643,-1.922 0.643,-2.985 V 46.498 c 0,-4.04 -3.286,-7.326 -7.326,-7.326 h -6.926 c -0.063,-0.833 -0.107,-1.664 -0.133,-2.474 -0.029,-0.729 -0.039,-1.406 -0.042,-2.073 -0.01,-0.703 0.002,-1.277 0.032,-1.776 0.06,-1.079 0.188,-2.124 0.378,-3.057 0.205,-1 0.432,-1.649 0.519,-1.883 0.015,-0.041 0.03,-0.08 0.044,-0.121 0.056,-0.161 0.104,-0.281 0.136,-0.351 2.836,-5.413 0.769,-12.133 -4.634,-15.013 -1.597,-0.85 -3.394,-1.3 -5.195,-1.307 -1.803,0.007 -3.599,0.457 -5.194,1.307 -5.402,2.88 -7.471,9.6 -4.635,15.013 0.031,0.069 0.081,0.189 0.137,0.351 0.014,0.041 0.028,0.08 0.044,0.121 0.087,0.233 0.312,0.883 0.518,1.883 0.19,0.933 0.32,1.978 0.378,3.057 0.031,0.499 0.042,1.073 0.033,1.776 -0.004,0.667 -0.013,1.344 -0.042,2.073 -0.026,0.81 -0.07,1.641 -0.133,2.474 H 11.09 c -4.04,0 -7.326,3.286 -7.326,7.326 v 13.495 c 0,1.063 0.231,2.071 0.642,2.985 -0.409,0.736 -0.644,1.584 -0.644,2.486 0,7.368 -0.602,16.795 -1.488,19.766 -1.821,1.5 -2.168,3.619 -1.828,5.191 0.937,4.315 5.459,4.315 6.945,4.315 3.454,0 9.681,-0.606 9.943,-0.632 0.402,-0.041 0.791,-0.127 1.159,-0.252 0.395,0.099 0.805,0.151 1.222,0.152 l 7.195,0.035 7.196,-0.035 c 0.417,-0.001 0.827,-0.055 1.221,-0.152 0.368,0.125 0.757,0.211 1.159,0.252 0.263,0.024 6.491,0.632 9.944,0.632 1.485,0 6.01,0 6.944,-4.315 0.341,-1.571 -0.006,-3.691 -1.827,-5.191 z m -14.473,3.968 -2.748,-11.988 -1.375,11.871 -13.3,-0.006 -2.906,-6.99 v 7.113 c 0,0 -13.952,1.368 -10.942,0 C 8.812,87.831 8.812,65.671 8.812,65.671 H 26.91 45.009 c 0,0 0,22.16 3.009,23.527 3.008,1.368 -10.944,0 -10.944,0 z"
         id="path9"/></g></g><g
     id="g11"
     transform="translate(0,-34.737)" /><g
     id="g13"
     transform="translate(0,-34.737)" /><g
     id="g15"
     transform="translate(0,-34.737)" /><g
     id="g17"
     transform="translate(0,-34.737)" /><g
     id="g19"
     transform="translate(0,-34.737)" /><g
     id="g21"
     transform="translate(0,-34.737)" /><g
     id="g23"
     transform="translate(0,-34.737)" /><g
     id="g25"
     transform="translate(0,-34.737)" /><g
     id="g27"
     transform="translate(0,-34.737)" /><g
     id="g29"
     transform="translate(0,-34.737)" /><g
     id="g31"
     transform="translate(0,-34.737)" /><g
     id="g33"
     transform="translate(0,-34.737)" /><g
     id="g35"
     transform="translate(0,-34.737)" /><g
     id="g37"
     transform="translate(0,-34.737)" /><g
     id="g39"
     transform="translate(0,-34.737)" /></svg>