<?xml version="1.0" encoding="utf-8"?>
<!-- Generator: Adobe Illustrator 18.0.0, SVG Export Plug-In . SVG Version: 6.00 Build 0)  -->
<!DOCTYPE svg PUBLIC "-//W3C//DTD SVG 1.1//EN" "http://www.w3.org/Graphics/SVG/1.1/DTD/svg11.dtd">
<svg version="1.1" id="Calque_1" xmlns="http://www.w3.org/2000/svg" xmlns:xlink="http://www.w3.org/1999/xlink" x="0px" y="0px"
	 viewBox="0 0 72 72" enable-background="new 0 0 72 72" xml:space="preserve">
   <g
     id="g3"
     transform="matrix(0.12143164,0,0,0.12143164,7.2663477,9.4892163)"><path
       d="M 409.641,1.352 H 231.924 c -7.184,0 -13.01,5.824 -13.01,13.009 V 86.01 H 17.586 C 7.873,86.01 0,93.883 0,103.595 v 300.116 c 0,9.713 7.873,17.586 17.586,17.586 h 300.117 c 9.711,0 17.584,-7.873 17.584,-17.586 V 205.088 h 74.354 c 7.184,0 13.008,-5.823 13.008,-13.009 V 14.361 C 422.648,7.177 416.824,1.352 409.641,1.352 z M 300.117,386.127 H 35.17 V 121.18 h 183.744 v 50.841 l -75.533,75.534 -18.91,-18.91 c -1.9,-1.9 -4.668,-2.641 -7.262,-1.945 -2.594,0.695 -4.621,2.721 -5.314,5.316 l -25.512,95.227 c -0.693,2.594 0.047,5.362 1.945,7.262 1.43,1.429 3.35,2.201 5.316,2.201 0.648,0 1.303,-0.084 1.945,-0.256 l 95.227,-25.51 c 2.596,-0.695 4.621,-2.722 5.316,-5.314 0.695,-2.596 -0.047,-5.362 -1.945,-7.264 l -18.912,-18.91 74.365,-74.364 h 50.477 v 181.039 z"
       id="path5" /></g><g
     id="g7"
     transform="translate(0,-362.649)" /><g
     id="g9"
     transform="translate(0,-362.649)" /><g
     id="g11"
     transform="translate(0,-362.649)" /><g
     id="g13"
     transform="translate(0,-362.649)" /><g
     id="g15"
     transform="translate(0,-362.649)" /><g
     id="g17"
     transform="translate(0,-362.649)" /><g
     id="g19"
     transform="translate(0,-362.649)" /><g
     id="g21"
     transform="translate(0,-362.649)" /><g
     id="g23"
     transform="translate(0,-362.649)" /><g
     id="g25"
     transform="translate(0,-362.649)" /><g
     id="g27"
     transform="translate(0,-362.649)" /><g
     id="g29"
     transform="translate(0,-362.649)" /><g
     id="g31"
     transform="translate(0,-362.649)" /><g
     id="g33"
     transform="translate(0,-362.649)" /><g
     id="g35"
     transform="translate(0,-362.649)" /></svg>